<?xml version="1.0" encoding="UTF-8"?>
<svg xmlns="http://www.w3.org/2000/svg" width="40" height="25" viewBox="0 0 40 25">
  <rect width="40" height="25" fill="#B22234"/>
  <rect width="40" height="15" fill="#fff"/>
  <rect width="40" height="5" fill="#B22234"/>
  <rect width="40" height="10" fill="#fff"/>
  <rect width="40" height="5" fill="#B22234"/>
  <rect width="40" height="10" fill="#fff"/>
  <rect width="40" height="5" fill="#B22234"/>
  <rect width="16" height="14" fill="#3C3B6E"/>
  <g fill="#fff" transform="scale(0.6) translate(0,2)">
    <circle cx="4" cy="2" r="0.5"/>
    <circle cx="8" cy="2" r="0.5"/>
    <circle cx="12" cy="2" r="0.5"/>
    <circle cx="16" cy="2" r="0.5"/>
    <circle cx="20" cy="2" r="0.5"/>
    <circle cx="6" cy="6" r="0.5"/>
    <circle cx="10" cy="6" r="0.5"/>
    <circle cx="14" cy="6" r="0.5"/>
    <circle cx="18" cy="6" r="0.5"/>
    <circle cx="4" cy="10" r="0.5"/>
    <circle cx="8" cy="10" r="0.5"/>
    <circle cx="12" cy="10" r="0.5"/>
    <circle cx="16" cy="10" r="0.5"/>
    <circle cx="20" cy="10" r="0.5"/>
    <circle cx="6" cy="14" r="0.5"/>
    <circle cx="10" cy="14" r="0.5"/>
    <circle cx="14" cy="14" r="0.5"/>
    <circle cx="18" cy="14" r="0.5"/>
    <circle cx="4" cy="18" r="0.5"/>
    <circle cx="8" cy="18" r="0.5"/>
    <circle cx="12" cy="18" r="0.5"/>
    <circle cx="16" cy="18" r="0.5"/>
    <circle cx="20" cy="18" r="0.5"/>
  </g>
</svg>